<svg xmlns="http://www.w3.org/2000/svg" width="64" height="64" viewBox="0 0 64 64">
    <g fill="none" fill-rule="evenodd">
        <g>
            <g>
                <path d="M0 0H64V64H0z" transform="translate(-104 -104) translate(104 104)"/>
                <g fill="#752EEB" fill-rule="nonzero">
                    <path d="M47.43.436C47.064.114 46.58-.04 46.096.01L15.24 3.438c-.869.096-1.526.83-1.526 1.704v30.55c-1.553-.93-3.332-1.416-5.142-1.407C3.845 34.285 0 37.36 0 41.142s3.845 6.857 8.571 6.857c4.727 0 8.572-3.074 8.572-6.857V15.256l27.428-3.055V32.26c-1.554-.928-3.332-1.413-5.142-1.403-4.727 0-8.572 3.076-8.572 6.857 0 3.782 3.845 6.858 8.572 6.858 4.726 0 8.571-3.074 8.571-6.858v-36c0-.487-.208-.952-.57-1.277z" transform="translate(-104 -104) translate(104 104) translate(8 8)"/>
                </g>
            </g>
        </g>
    </g>
</svg>
