<svg xmlns="http://www.w3.org/2000/svg" width="195" height="41"><g fill="none" fill-rule="evenodd"><g fill-rule="nonzero"><path fill="#010C2C" d="M50 20.2v-3.9h3.1c1.2 0 2.2-.2 3-.6.9-.3 1.6-.9 2-1.6.5-.7.7-1.6.7-2.5 0-1-.2-1.8-.7-2.5a4.4 4.4 0 00-2-1.7c-.8-.4-1.8-.6-3-.6h-5.5v13.4h2.5zm3-6h-3V9h3c1 0 1.9.3 2.5.7.5.5.8 1.1.8 2s-.3 1.5-.8 2c-.6.4-1.4.6-2.5.6zm11.9 6v-4h3.5l2.7 4h2.7l-3-4.4c.8-.4 1.5-1 2-1.6.5-.8.8-1.6.8-2.6s-.3-1.8-.7-2.5a4.4 4.4 0 00-2-1.7c-.9-.4-1.9-.6-3-.6h-5.5v13.4h2.5zm2.9-6h-3V9h3c1 0 1.9.3 2.4.7.6.5.9 1.1.9 2s-.3 1.5-.9 2c-.5.4-1.4.6-2.4.6zm15.9 6.1c1.3 0 2.6-.3 3.6-.8a6.6 6.6 0 003.6-6 6.7 6.7 0 00-3.6-6c-1-.5-2.3-.8-3.6-.8S81 7 80 7.5a6.6 6.6 0 00-3.5 6 6.7 6.7 0 003.5 6c1 .5 2.3.8 3.7.8zm0-2.1c-1 0-1.7-.2-2.4-.6-.8-.4-1.3-1-1.7-1.7-.4-.7-.6-1.5-.6-2.4 0-.9.2-1.7.6-2.4.4-.7 1-1.3 1.7-1.7.7-.4 1.5-.6 2.4-.6.9 0 1.7.2 2.4.6a4.8 4.8 0 012.3 4c0 1-.2 1.8-.7 2.5-.4.7-1 1.3-1.6 1.7-.7.4-1.5.6-2.4.6zm15.9 2V8.9h4.4V7H92.7v2H97v11.3h2.5zm13.4.1c1.4 0 2.6-.3 3.7-.8a6.6 6.6 0 003.5-6 6.7 6.7 0 00-3.5-6c-1-.5-2.3-.8-3.7-.8-1.3 0-2.6.3-3.7.8a6.5 6.5 0 00-3.5 6 6.7 6.7 0 003.5 6c1.1.5 2.4.8 3.7.8zm0-2.1c-.9 0-1.7-.2-2.4-.6-.7-.4-1.2-1-1.7-1.7-.4-.7-.6-1.5-.6-2.4 0-.9.2-1.7.6-2.4.5-.7 1-1.3 1.7-1.7.7-.4 1.5-.6 2.4-.6 1 0 1.7.2 2.4.6.7.4 1.3 1 1.7 1.7.4.7.6 1.5.6 2.4s-.2 1.7-.6 2.4c-.4.7-1 1.3-1.7 1.7-.7.4-1.5.6-2.4.6zm13.4 2v-9l7.4 9h2V6.8h-2.4v9l-7.4-9h-2v13.4h2.4z"/><path fill="#752EEB" d="M145 20.2v-5l2.5 4h.7l2.5-4v5h1.3v-7.7h-1.2l-3 5-3-5h-1.1v7.7h1.3zm10 0l.8-1.8h3.9l.7 1.8h1.5l-3.4-7.7H157l-3.5 7.7h1.5zm4.2-3h-2.9l1.4-3.2 1.5 3.3zm5.7 3v-2.3h2l1.6 2.3h1.5l-1.7-2.5c.5-.2.9-.6 1.2-1 .3-.4.4-.9.4-1.4 0-.6-.1-1-.4-1.5-.3-.4-.6-.7-1.1-1-.5-.1-1.1-.3-1.8-.3h-3.1v7.7h1.4zm1.7-3.4h-1.7v-3h1.7c.6 0 1 0 1.4.3.3.3.5.7.5 1.2 0 .4-.2.8-.5 1-.3.3-.8.5-1.4.5zm7 3.4v-2l1.1-1.2 2.7 3.2h1.7l-3.4-4.3 3.2-3.4h-1.6l-3.8 4v-4h-1.4v7.7h1.4zm12.8 0V19h-4.3v-2.1h3.7v-1.2H182v-2h4.1v-1.2h-5.5v7.7h5.7zm5.2 0v-6.5h2.5v-1.1h-6.5v1.1h2.6v6.5h1.4z"/></g><path fill="#999" fill-rule="nonzero" d="M49.4 34.6c.7 0 1.3-.2 1.8-.4a3.2 3.2 0 001.7-3c0-.5-.2-1.1-.5-1.6s-.7-.9-1.2-1.2c-.5-.3-1.1-.4-1.8-.4-.6 0-1.2.1-1.7.4a3.1 3.1 0 00-1.7 2.9c0 .6.1 1.2.4 1.7.3.5.8.9 1.3 1.2.5.2 1 .4 1.7.4zm0-1c-.4 0-.8-.2-1.1-.4a2 2 0 01-.8-.8 2.3 2.3 0 010-2.3l.8-.8a2.3 2.3 0 012.3 0l.8.8.3 1.2c0 .4-.1.8-.3 1.1a2 2 0 01-.8.8c-.3.2-.7.3-1.2.3zm6.5.9v-1.9h1.4c.6 0 1 0 1.4-.2.5-.2.8-.5 1-.8l.3-1.2c0-.5 0-1-.3-1.2-.2-.4-.5-.7-1-.8-.4-.2-.8-.3-1.4-.3h-2.6v6.4h1.2zm1.3-2.9H56v-2.5h1.3c.6 0 1 .1 1.2.3.3.2.4.6.4 1s-.1.7-.4 1l-1.2.2zm9.3 2.9v-1H63v-1.8H66v-1h-3v-1.6h3.4v-1h-4.7v6.4h4.8zm3 0v-4.3l3.6 4.3h1V28h-1.2v4.3l-3.6-4.3h-1v6.4h1.2zm13 0c.8 0 1.4-.2 1.9-.5.4-.3.6-.7.6-1.3 0-.4-.1-.7-.3-1l-.8-.5.6-.6.2-.8c0-.6-.2-1-.6-1.3a3 3 0 00-1.8-.4h-3v6.4h3.2zm-.3-3.7h-1.7V29h1.7l1 .2c.2.2.3.4.3.7 0 .3-.1.5-.4.7l-.9.2zm.2 2.8h-1.9v-1.9h2c.9 0 1.3.3 1.3 1s-.4.9-1.4.9zm9.2.9v-1H88v-1.8h3v-1h-3v-1.6h3.5v-1h-4.7v6.4h4.8zm4.3 0V29H98v-1h-5.4v1h2.1v5.4H96zm3.6 0l.6-1.5h3.2l.6 1.5h1.3l-3-6.4h-1l-3 6.4h1.3zm3.4-2.4h-2.4l1.2-2.8 1.2 2.8z"/><path fill="#752EEB" d="M18.4 0c2.6 0 4.9 2.7 6.4 7.2l-1.9.5C21.7 4.1 20 2 18.4 2c-1.9 0-3.8 2.7-5 7.3a40.5 40.5 0 015 2l.2-.1a46 46 0 012.3-1l.2-.1c2.3-.9 4.5-1.5 6.5-1.8 4.3-.8 7.4 0 8.6 2 1.2 2.1.3 5.1-2.5 8.5l-.5.6-1.3-1.4c2.5-2.9 3.4-5.3 2.6-6.7-.7-1.3-3.2-1.7-6.6-1.2l-2.2.5a33.2 33.2 0 01.8 5.3 46.8 46.8 0 017.2 6.5c2.8 3.4 3.7 6.4 2.5 8.4-1 1.6-2.9 2.4-5.6 2.4a18.3 18.3 0 01-3.8-.4l.4-1.9.7.2c3.4.5 5.9 0 6.6-1.2 1-1.6-.5-4.6-3.8-8l-1 1h-.2l-3 2.4-.2 1.7c-1 8.4-4.1 14.1-8 14.1-2.6 0-4.9-2.7-6.4-7.1a32 32 0 001.9-.6c1.2 3.6 3 5.8 4.6 5.8 1.8 0 3.7-2.7 5-7.3a32.4 32.4 0 01-5-2h-.1l-2 1H16a27.7 27.7 0 01-9.8 2.3c-2.7 0-4.7-.8-5.7-2.3-1.3-2.3 0-5.7 3-9.2L5 23c-2.5 2.9-3.5 5.4-2.7 6.8.9 1.6 4.2 1.9 8.8.7a37 37 0 01-.8-5.3l-1.7-1.3C3.2 19.9 0 15.5 0 12.3c0-.8.2-1.4.5-2 1.3-2.3 4.8-3 9.4-2l-.4 1.9c-3.8-.8-6.5-.4-7.3 1-1 1.6.5 4.6 3.8 8a35.2 35.2 0 014.2-3.4l.2-1.7c1-8.4 4.1-14.1 8-14.1zm6 26.5a52.1 52.1 0 01-3.6 2.1l-.2.1a41.6 41.6 0 003.2 1.2 36.7 36.7 0 00.6-3.4zm-12 0a41.8 41.8 0 00.5 3.4l1-.3h.2l2-.9-1.9-1h-.1l-1.8-1.2zm6-13.2a50.5 50.5 0 00-6.3 3.6 49.7 49.7 0 000 7.2 45.3 45.3 0 006.3 3.6h.2a49.2 49.2 0 006-3.6 47.4 47.4 0 000-7.2 51.1 51.1 0 00-6.2-3.6zm0 4.8a2.4 2.4 0 110 4.9 2.4 2.4 0 010-5zm8.2.2v4.4l1.4-1.1.2-.1 1.1-1a37.5 37.5 0 00-2.7-2.2zm-16.5 0a40.3 40.3 0 00-2.7 2.2 34.6 34.6 0 002.7 2.2v-2.2-.5-1.7zm13.7-7.2a33 33 0 00-3 1.1h-.2l2 1.1 1.8 1.2a40.5 40.5 0 00-.6-3.4zm-11 0a40.2 40.2 0 00-.5 3.4l1.8-1.1h.1l2-1.1a41.5 41.5 0 00-3.3-1.2z"/></g></svg>
