<svg xmlns="http://www.w3.org/2000/svg" width="32" height="32"><g fill="none" fill-rule="evenodd"><path d="M0 0h32v32H0z"/><path fill="#752EEB" fill-rule="nonzero" stroke="#FFF" stroke-width="2" d="M16 1.7c.6 0 1.7.8 2.5 1.7.6.7 1.3 1.2 2 1.6.9.3 1.8.4 2.7.3 1.2 0 2.6.2 3 .6.3.3.5 1.4.5 2.5a8 8 0 00.3 3c.4.8 1 1.5 1.6 2 .9 1 1.7 2 1.7 2.6 0 .6-.8 1.7-1.7 2.5-.7.6-1.2 1.3-1.6 2-.3.9-.4 1.8-.3 2.7 0 1.3-.2 2.6-.6 3-.3.3-1.4.5-2.5.5a8 8 0 00-3 .3c-.8.4-1.5 1-2 1.6-1 .9-2 1.7-2.6 1.7-.6 0-1.7-.8-2.5-1.7a6.6 6.6 0 00-2-1.6c-.7-.3-1.4-.4-2-.3h0-.8c-1.2 0-2.5-.2-2.9-.6-.3-.3-.5-1.4-.5-2.5a8 8 0 00-.3-3c-.4-.8-1-1.5-1.6-2-.9-1-1.7-2-1.7-2.6 0-.6.8-1.7 1.7-2.5.7-.6 1.2-1.3 1.6-2 .3-.9.4-1.8.3-2.7 0-1.3.2-2.6.6-3 .3-.3 1.4-.5 2.5-.5a8 8 0 003-.3c.8-.4 1.5-1 2-1.6 1-.9 2-1.7 2.6-1.7z"/><path fill="#FFF" fill-rule="nonzero" d="M14.7 20.7c-.3 0-.6 0-.9-.3l-3.4-2.7a1.4 1.4 0 011.8-2.1l2.4 1.9 5.2-5.2a1.4 1.4 0 012 2l-6.1 6c-.3.3-.7.4-1 .4z"/></g></svg>
