<svg xmlns="http://www.w3.org/2000/svg" width="30" height="34"><path d="M14.9.8c2.1 0 4 2.2 5.2 5.8-.5 0-1 .2-1.5.4-1-3-2.4-4.7-3.7-4.7-1.5 0-3 2.2-4 5.9a32.5 32.5 0 014 1.6h.2l1.8-.9h.2c1.9-.8 3.7-1.3 5.3-1.5 3.5-.6 6 0 7 1.7 1 1.6.2 4-2 6.8l-.5.5-1-1.1c2-2.4 2.7-4.4 2.1-5.5-.6-1-2.6-1.4-5.4-1l-1.8.5a27.3 27.3 0 01.7 4.3 40.6 40.6 0 015.8 5.2c2.3 2.8 3 5.2 2 6.9-.7 1.2-2.3 1.9-4.5 1.9a14.7 14.7 0 01-3-.3l.3-1.5h.5c2.8.5 4.8.2 5.4-.9.7-1.3-.4-3.7-3.1-6.5a27.7 27.7 0 01-3.4 2.7l-.2 1.5C20.5 29.3 18 34 15 34c-2.2 0-4-2.2-5.2-5.8l1.5-.5c1 3 2.4 4.8 3.7 4.8 1.5 0 3-2.3 4-6a28.2 28.2 0 01-4-1.6l-1.7.8H13c-3 1.3-5.8 1.9-8 1.9s-3.8-.6-4.6-2c-1-1.8 0-4.5 2.5-7.3l1 1c-2 2.4-2.8 4.5-2.1 5.6.7 1.3 3.4 1.5 7.1.6a29.8 29.8 0 01-.6-4.3l-1.4-1C2.6 16.7 0 13.2 0 10.6c0-.6.1-1.1.4-1.6 1-1.9 4-2.4 7.7-1.6L7.7 9c-3-.6-5.3-.3-6 .8-.7 1.3.5 3.8 3.2 6.5a27.4 27.4 0 013.4-2.7c0-.5 0-1 .2-1.4C9.3 5.4 11.8.8 14.9.8zm4.9 21.5l-1.2.7-.3.2-1.4.7-.2.1a33.5 33.5 0 002.6 1 29.8 29.8 0 00.5-2.7zm-9.8 0a33.6 33.6 0 00.4 2.7l.8-.2.2-.1 1.7-.6-1.6-1c-.6-.2-1-.5-1.5-.8zm4.9-10.8a38.5 38.5 0 00-5.1 3 39.2 39.2 0 000 5.8 36.1 36.1 0 005 3l.3-.2a40.3 40.3 0 004.9-2.8 39.5 39.5 0 000-5.9 39 39 0 00-5.1-2.9zm0 3.9a2 2 0 110 4 2 2 0 010-4zm6.7.2v3.6l1.1-1h.2l.9-.8a26.7 26.7 0 00-2.2-1.8zm-13.4 0A36.3 36.3 0 006 17.4 27 27 0 008.2 19a45 45 0 010-3.5zm11.1-5.9a25.2 25.2 0 00-2.5 1h-.1l1.6.9 1.5.9a33.4 33.4 0 00-.5-2.8zm-8.9 0a30.6 30.6 0 00-.4 2.8l1.4-.9h.1l1.6-.9a33.3 33.3 0 00-2.7-1z" fill="#752EEB" fill-rule="evenodd"/></svg>
