<svg xmlns="http://www.w3.org/2000/svg" width="24" height="24" viewBox="0 0 24 24">
    <g fill="none" fill-rule="evenodd">
        <g>
            <g>
                <g>
                    <path d="M0 0L24 0 24 24 0 24z" transform="translate(-688 -464) translate(680 456) translate(8 8)"/>
                    <path fill="#1A1A1A" fill-rule="nonzero" d="M16 5l-1.42 1.42-1.59-1.59V16h-1.98V4.83L9.42 6.42 8 5l4-4 4 4zm4 5v11c0 1.1-.9 2-2 2H6c-1.11 0-2-.9-2-2V10c0-1.11.89-2 2-2h3v2H6v11h12V10h-3V8h3c1.1 0 2 .89 2 2z" transform="translate(-688 -464) translate(680 456) translate(8 8)"/>
                </g>
            </g>
        </g>
    </g>
</svg>
