<svg xmlns="http://www.w3.org/2000/svg" width="80" height="80"><g fill-rule="nonzero" fill="none"><path fill="#F0E8FD" d="M65 80H15C6.715 80 0 73.285 0 65V15C0 6.715 6.715 0 15 0h50c8.285 0 15 6.715 15 15v50c0 8.285-6.715 15-15 15z" opacity=".5"/><path fill="#752EEB" d="M40.278 20.015c-8.623-.308-16.58 4.815-19.82 12.792-.81 2-.535 4.233.74 5.97a6.077 6.077 0 005.427 2.483l5.11-.407a6.902 6.902 0 015.42 1.994 6.874 6.874 0 011.995 5.42l-.407 5.108a6.088 6.088 0 002.482 5.428A6.109 6.109 0 0044.858 60c.785 0 1.577-.153 2.335-.46 7.977-3.24 13.117-11.203 12.79-19.818-.4-10.647-9.058-19.302-19.705-19.707zM30 35a3.336 3.336 0 01-3.332-3.332A3.336 3.336 0 0130 28.335a3.337 3.337 0 013.333 3.332A3.337 3.337 0 0130 35zm10.833-1.665a4.173 4.173 0 01-4.168-4.168A4.17 4.17 0 0140.833 25 4.17 4.17 0 0145 29.168a4.17 4.17 0 01-4.167 4.167zM46.666 55a3.336 3.336 0 01-3.332-3.333 3.336 3.336 0 013.332-3.332 3.336 3.336 0 013.333 3.332A3.335 3.335 0 0146.667 55zm2.5-9.917a5.925 5.925 0 01-5.917-5.918 5.925 5.925 0 015.917-5.917 5.925 5.925 0 015.918 5.917 5.926 5.926 0 01-5.918 5.918z"/></g></svg>