<svg xmlns="http://www.w3.org/2000/svg" width="213" height="220"><defs><filter id="b" width="163.2%" height="161.2%" x="-31.6%" y="-30.6%" filterUnits="objectBoundingBox"><feGaussianBlur in="SourceGraphic" stdDeviation="10"/></filter><filter id="c" width="208.4%" height="277.4%" x="-54.2%" y="-88.7%" filterUnits="objectBoundingBox"><feGaussianBlur in="SourceGraphic" stdDeviation="4"/></filter><filter id="d" width="371%" height="387%" x="-135.5%" y="-143.5%" filterUnits="objectBoundingBox"><feGaussianBlur in="SourceGraphic" stdDeviation="4"/></filter><radialGradient id="a" cx="50%" cy="100%" r="103.3%" fx="50%" fy="100%" gradientTransform="matrix(0 .96818 -1 0 2 1)"><stop offset="0%" stop-color="#FFD599"/><stop offset="100%" stop-color="#FFEACC"/></radialGradient></defs><g fill="none" fill-rule="evenodd"><rect width="213" height="220" fill="url(#a)" rx="8"/><path fill="#F9800F" d="M154 150c-1 17-15 32-32 33H91c-17-1-31-16-32-33v-32c1-17 15-32 32-33h31c17 1 31 16 32 33v32" filter="url(#b)" opacity=".5"/><path d="M154 126c-1 16-15 30-32 31H91c-16-1-30-15-31-31V93c1-16 15-30 31-31h31c17 1 31 15 32 31v33" fill="#FFD40F"/><path fill="#F9800F" d="M154 126c-1 17-15 30-32 31H91c-16-1-30-14-31-31V95c1-17 15-30 31-31h31c17 1 31 14 32 31v31"/><path fill="#F99A0F" d="M122 64H91c-16 1-30 14-31 31v19c2 15 15 26 29 27h31c16-1 29-14 30-30V82c-5-10-16-17-28-18"/><path fill="#FFF" d="M42 14c0 4-5 7-11 7s-11-3-11-7 5-7 11-7 11 3 11 7" filter="url(#c)" transform="translate(59 61)"/><path fill="#FFF" d="M59 12c0 2-2 4-5 4-2 0-4-2-4-4s2-4 4-4c3 0 5 2 5 4" filter="url(#d)" transform="translate(59 61)"/><path fill="#F9800F" d="M130 99c0 15-10 27-23 27s-23-12-23-27c0-14 10-26 23-26s23 12 23 26"/><path fill="#FFF8C6" d="M130 99a23 23 0 11-46 0 23 23 0 0146 0"/><path fill="#59103A" d="M107 94c6 0 11 4 12 9a13 13 0 00-12-15 13 13 0 00-12 15c1-5 6-9 12-9"/><path fill="#934D08" d="M125 132c0 6-8 11-18 11s-19-5-19-11 9 7 19 7 18-12 18-7"/></g></svg>
