<svg xmlns="http://www.w3.org/2000/svg" width="30" height="34"><path d="M14.884.75c2.14 0 3.987 2.213 5.204 5.808-.491.136-.993.288-1.5.458-1.01-2.975-2.397-4.725-3.704-4.725-1.473 0-3.044 2.22-4.067 5.909.4.129.803.265 1.215.416.928.34 1.886.74 2.862 1.195.056-.026.111-.054.167-.079a37.72 37.72 0 011.862-.792l.221-.086c1.842-.709 3.622-1.218 5.252-1.486 3.51-.581 5.977.02 6.946 1.693.97 1.673.26 4.101-2 6.836-.13.156-.262.314-.402.47a24.697 24.697 0 00-1.076-1.115c1.994-2.303 2.779-4.315 2.138-5.42-.606-1.046-2.605-1.399-5.352-.945-.586.097-1.196.229-1.823.391.09.41.173.827.247 1.26.17.969.3 1.994.393 3.06.483.339.954.682 1.407 1.03 1.773 1.368 3.297 2.8 4.469 4.219 2.26 2.734 2.97 5.162 1.999 6.835-.728 1.258-2.302 1.91-4.529 1.91-.736 0-1.543-.071-2.417-.217a21.381 21.381 0 01-.687-.125c.139-.478.267-.978.384-1.495.188.038.374.07.557.101 2.745.454 4.746.102 5.352-.944.736-1.27-.414-3.742-3.118-6.474a27.685 27.685 0 01-.964.838 36.85 36.85 0 01-2.456 1.873c-.042.483-.09.961-.147 1.425-.845 6.772-3.33 11.42-6.433 11.42-2.136 0-3.98-2.207-5.196-5.793.488-.132.988-.286 1.5-.458 1.01 2.966 2.392 4.71 3.696 4.71 1.473 0 3.049-2.228 4.073-5.927a28.184 28.184 0 01-1.216-.414 37.152 37.152 0 01-2.848-1.178l-.062.029c-.542.25-1.074.484-1.6.7-.083.033-.162.066-.242.094-3.03 1.216-5.796 1.845-7.996 1.845-2.191 0-3.817-.625-4.568-1.92-1.075-1.853-.058-4.568 2.487-7.43l1.082 1.136c-2.06 2.347-2.877 4.403-2.227 5.524.735 1.269 3.452 1.514 7.173.552a29.82 29.82 0 01-.245-1.257 36.433 36.433 0 01-.392-3.054 40.54 40.54 0 01-1.404-1.02C2.587 16.83 0 13.322 0 10.711c0-.603.14-1.158.425-1.651 1.07-1.843 3.911-2.33 7.642-1.585-.141.484-.272.99-.39 1.514-3.066-.603-5.262-.28-5.91.841-.736 1.27.41 3.735 3.106 6.463a27.41 27.41 0 011.082-.93 36.943 36.943 0 012.35-1.776c.042-.485.09-.963.149-1.427.845-6.765 3.33-11.41 6.43-11.41zm4.898 21.515c-.372.235-.75.467-1.134.694-.13.077-.261.152-.391.227a42.64 42.64 0 01-1.37.753c-.066.036-.133.069-.2.104a33.541 33.541 0 002.636.984 29.832 29.832 0 00.459-2.762zm-9.8-.002c.064.522.14 1.03.223 1.52.073.428.155.84.242 1.242.25-.081.503-.166.76-.256.077-.027.157-.055.234-.084.529-.19 1.07-.398 1.623-.634l.016-.006a42.45 42.45 0 01-1.568-.86c-.026-.015-.055-.03-.082-.048a44.085 44.085 0 01-1.449-.874zm4.903-10.745c-.53.256-1.06.525-1.59.812a42.654 42.654 0 00-3.502 2.114 39.18 39.18 0 00-.105 2.928c0 1.013.037 1.988.104 2.926.451.304.916.606 1.402.902a41.26 41.26 0 003.692 2.025c.056-.027.11-.051.166-.079a40.337 40.337 0 001.747-.911 41.765 41.765 0 003.176-1.935 39.515 39.515 0 00.106-2.928c0-1.013-.038-1.989-.104-2.927a42.734 42.734 0 00-2.494-1.554 41.688 41.688 0 00-2.598-1.373zm0 3.872c1.099 0 1.99.887 1.99 1.982a1.986 1.986 0 01-1.99 1.981c-1.1 0-1.99-.887-1.99-1.981 0-1.095.89-1.982 1.99-1.982zm6.709.206c.023.582.035 1.174.035 1.776 0 .145 0 .29-.002.436-.005.455-.019.902-.036 1.346.398-.3.78-.601 1.146-.902.046-.037.09-.072.134-.11.31-.258.606-.514.89-.77a30.794 30.794 0 00-2.167-1.775zm-13.416-.004c-.358.27-.704.54-1.035.809-.4.322-.778.647-1.137.972.26.234.531.47.814.705.427.357.881.714 1.355 1.07a45.008 45.008 0 01-.031-2.21c.003-.455.016-.902.034-1.346zM19.32 9.718a30.162 30.162 0 00-2.493.924c-.045.018-.09.038-.134.057.517.272 1.039.557 1.563.858.026.016.055.031.081.049.495.283.976.577 1.45.876a30.477 30.477 0 00-.467-2.764zm-8.875 0a30.587 30.587 0 00-.46 2.756c.472-.296.957-.59 1.455-.877l.071-.04c.522-.3 1.046-.585 1.57-.858-.474-.2-.94-.384-1.397-.553a27.818 27.818 0 00-1.239-.428z" fill="#752EEB" fill-rule="evenodd"/></svg>