<svg xmlns="http://www.w3.org/2000/svg" width="80" height="80"><g fill-rule="nonzero" fill="none"><path d="M65 80H15C6.715 80 0 73.285 0 65V15C0 6.715 6.715 0 15 0h50c8.285 0 15 6.715 15 15v50c0 8.285-6.715 15-15 15z" fill="#F0E8FD" opacity=".5"/><path d="M55.417 26.668H24.582A4.587 4.587 0 0020 31.25v17.5a4.587 4.587 0 004.582 4.583h30.833a4.587 4.587 0 004.583-4.582v-17.5a4.583 4.583 0 00-4.58-4.583zm-25 7.5H26.25a1.25 1.25 0 010-2.5h4.168a1.25 1.25 0 010 2.5zm8.95 4.582h1.268a3.537 3.537 0 01.615 7.02v1.313a1.25 1.25 0 01-2.5 0v-1.25h-1.668a1.25 1.25 0 010-2.5h3.55c.57 0 1.033-.465 1.033-1.032a1.04 1.04 0 00-1.032-1.05h-1.268a3.537 3.537 0 01-.615-7.021v-1.312a1.25 1.25 0 012.5 0v1.25h1.668a1.25 1.25 0 010 2.5h-3.55c-.57 0-1.033.465-1.033 1.033a1.036 1.036 0 001.032 1.05zm14.383 9.583h-4.168a1.25 1.25 0 010-2.5h4.168a1.25 1.25 0 010 2.5z" fill="#752EEB"/></g></svg>