<svg xmlns="http://www.w3.org/2000/svg" width="32" height="32"><path d="M30.7 21.3c.7 0 1.3.6 1.3 1.4V28a4 4 0 01-4 4h-5.3a1.3 1.3 0 010-2.7H28c.7 0 1.3-.6 1.3-1.3v-5.3c0-.8.6-1.4 1.4-1.4zm-29.4 0c.8 0 1.4.6 1.4 1.4V28c0 .7.6 1.3 1.3 1.3h5.3a1.3 1.3 0 110 2.7H4a4 4 0 01-4-4v-5.3c0-.8.6-1.4 1.3-1.4zm24-7.7v7.7l-8 3.5V17l8-3.4zm-18.6 0l8 3.4v7.8l-8-3.5v-7.7zm9.3-7l9.3 4-9.3 4-9.3-4 9.3-4zM9.3 0a1.3 1.3 0 010 2.7H4c-.7 0-1.3.6-1.3 1.3v5.3a1.3 1.3 0 01-2.7 0V4a4 4 0 014-4h5.3zM28 0a4 4 0 014 4v5.3a1.3 1.3 0 11-2.7 0V4c0-.7-.6-1.3-1.3-1.3h-5.3a1.3 1.3 0 110-2.7H28z" fill="#752EEB" fill-rule="nonzero"/></svg>