<svg xmlns="http://www.w3.org/2000/svg" width="80" height="80"><g fill-rule="nonzero" fill="none"><path fill="#F0E8FD" d="M65 80H15C6.715 80 0 73.285 0 65V15C0 6.715 6.715 0 15 0h50c8.285 0 15 6.715 15 15v50c0 8.285-6.715 15-15 15z" opacity=".5"/><path d="M58.335 46.663c.922 0 1.665.75 1.665 1.67V55c0 2.758-2.242 5-5 5h-6.668a1.668 1.668 0 01.001-3.335H55c.92 0 1.667-.748 1.667-1.667V48.33c0-.92.745-1.667 1.668-1.667zm-36.668.002c.923 0 1.668.748 1.668 1.668V55c0 .92.747 1.667 1.668 1.667h6.667c.92 0 1.668.748 1.668 1.668 0 .92-.75 1.665-1.67 1.665H25c-2.757 0-5-2.242-5-5v-6.668c0-.92.745-1.667 1.667-1.667zm30-9.705v9.707l-10 4.285v-9.707l10-4.285zm-23.335 0l10 4.285v9.707l-10-4.285V36.96zM40 28.332l11.668 5-11.668 5-11.668-5 11.668-5zM31.668 20a1.668 1.668 0 01-.001 3.335H25c-.92 0-1.667.747-1.667 1.668v6.667c0 .918-.746 1.662-1.666 1.662A1.665 1.665 0 0120 31.667V25c0-2.757 2.243-5 5-5h6.668zM55 20c2.758 0 5 2.243 5 5v6.668c0 .92-.745 1.665-1.667 1.665a1.67 1.67 0 01-1.668-1.668V25c0-.92-.748-1.667-1.667-1.667H48.33c-.92 0-1.667-.748-1.667-1.668 0-.92.75-1.665 1.67-1.665H55z" fill="#752EEB"/></g></svg>