<svg xmlns="http://www.w3.org/2000/svg" width="24" height="24"><path d="M21.2 0H2.8A2.8 2.8 0 000 2.8v18.4C0 22.7 1.3 24 2.8 24h18.4c1.5 0 2.8-1.3 2.8-2.8V2.8C24 1.3 22.7 0 21.2 0zM2.8 1.9h18.4c.5 0 1 .4 1 1v13.7l-3.3-3.2a2.8 2.8 0 00-4 0l-1 1-2.9-2.9a2.8 2.8 0 00-4 0L2 16.7V2.8c0-.5.4-1 1-1zM21.2 22H2.8a1 1 0 01-1-1v-1.8l6.6-6.5a1 1 0 011.3 0l4.2 4.3 2.4-2.4a1 1 0 011.3 0l4.5 4.5v2c0 .5-.4 1-1 1zm-6-12.7a2.8 2.8 0 100-5.7 2.8 2.8 0 000 5.7zm0-3.8a1 1 0 110 1.9 1 1 0 010-1.9z" fill="#CCC" fill-rule="nonzero"/></svg>
