<svg xmlns="http://www.w3.org/2000/svg" width="64" height="64" viewBox="0 0 64 64">
    <g fill="none" fill-rule="evenodd">
        <g>
            <g>
                <path d="M0 0H64V64H0z" transform="translate(-104 -104) translate(104 104)"/>
                <g fill="#752EEB" fill-rule="nonzero">
                    <path d="M48 3.857C48 1.727 46.27 0 44.134 0H3.866C1.73 0 0 1.727 0 3.857v37.286C0 43.273 1.73 45 3.866 45h40.268C46.27 45 48 43.273 48 41.143V3.857zm-33.342.964h6.926v5.465h-6.926V4.82zM9.826 40.18H4.832v-5.465h4.994v5.465zm0-29.893H4.832V4.82h4.994v5.465zm11.758 29.893h-6.926v-5.465h6.926v5.465zm-1.772-13.226v-8.906c0-1.326.945-1.817 2.057-1.09l6.481 4.222c1.112.726 1.12 1.915.01 2.641l-6.496 4.223c-1.111.727-2.052.236-2.052-1.09zm13.53 13.226h-6.926v-5.465h6.926v5.465zm0-29.893h-6.926V4.82h6.926v5.465zm9.826 29.893h-4.994v-5.465h4.994v5.465zm0-29.893h-4.994V4.82h4.994v5.465z" transform="translate(-104 -104) translate(104 104) translate(8 10)"/>
                </g>
            </g>
        </g>
    </g>
</svg>
